<?xml version="1.0" standalone="no"?>
<!DOCTYPE svg PUBLIC "-//W3C//DTD SVG 20010904//EN"
 "http://www.w3.org/TR/2001/REC-SVG-20010904/DTD/svg10.dtd">
<svg version="1.0" xmlns="http://www.w3.org/2000/svg"
 width="300.000000pt" height="45.000000pt" viewBox="0 0 300.000000 45.000000"
 preserveAspectRatio="xMidYMid meet">

<g transform="translate(0.000000,45.000000) scale(0.100000,-0.100000)"
fill="#000000" stroke="none">
<path d="M1732 438 c-8 -10 -3 -13 21 -14 18 0 41 -4 52 -9 20 -8 20 -8 1 13
-21 24 -58 29 -74 10z"/>
<path d="M758 409 c-25 -14 -23 -56 3 -69 49 -27 99 21 63 61 -19 21 -40 24
-66 8z"/>
<path d="M1674 395 c3 -8 0 -15 -7 -15 -7 0 -27 -9 -46 -21 -27 -16 -31 -23
-20 -30 11 -7 11 -9 -4 -9 -10 0 -20 7 -23 15 -9 24 -24 18 -35 -15 -10 -26
-13 -28 -26 -15 -19 20 -83 19 -111 -1 -21 -15 -25 -15 -41 0 -22 20 -80 21
-109 0 -20 -14 -22 -14 -22 2 0 13 -6 15 -31 10 -17 -3 -38 -6 -45 -6 -11 0
-14 -24 -14 -115 l0 -115 45 0 45 0 0 74 c0 77 13 104 45 92 12 -4 15 -23 15
-86 l0 -80 45 0 44 0 3 76 c2 61 7 79 21 88 31 19 49 -18 45 -94 l-3 -64 35
-7 c19 -4 35 -7 35 -6 1 16 27 43 44 45 17 3 25 -4 33 -26 11 -28 15 -30 85
-36 40 -4 107 -4 148 0 62 6 75 10 75 24 0 40 52 52 74 18 8 -13 7 -21 -3 -30
-11 -11 -13 -11 -7 0 9 15 -10 42 -29 42 -7 0 -15 -10 -18 -22 -4 -13 -7 -27
-9 -32 -2 -5 7 -10 19 -11 15 -1 20 3 16 14 -5 13 -3 14 7 4 8 -8 18 -9 24 -4
6 5 29 11 51 13 l40 3 5 80 c5 77 6 80 30 80 24 0 25 -2 28 -82 l3 -83 45 0
45 0 -3 106 c-3 103 -4 108 -30 127 -27 20 -47 19 -115 -9 -7 -3 -13 1 -13 8
0 11 -10 13 -42 9 l-43 -6 4 -88 c2 -56 0 -87 -7 -87 -6 0 -13 4 -17 10 -3 5
-12 7 -20 3 -22 -8 -18 10 5 25 24 15 25 30 3 54 -12 13 -14 21 -6 26 7 5 7
11 -3 20 -12 11 -14 10 -14 -5 0 -15 -2 -16 -10 -3 -5 8 -10 24 -10 35 0 17 2
17 10 5 6 -10 10 -11 10 -2 0 20 20 14 30 -10 8 -21 9 -20 9 8 1 37 -25 66
-35 40 -9 -24 -30 -19 -53 13 -26 37 -87 61 -152 61 -41 0 -50 -3 -45 -15z
m125 -31 c26 -33 26 -46 0 -75 -18 -21 -19 -21 -10 -3 7 15 6 27 -5 42 -18 26
-49 30 -40 6 4 -11 -1 -18 -15 -21 -15 -4 -19 -11 -15 -26 5 -18 4 -19 -11 -5
-21 21 -20 64 2 88 26 29 69 26 94 -6z m-233 -43 c-4 -5 -2 -11 4 -13 11 -4 2
-48 -11 -48 -5 0 -8 16 -7 35 1 19 5 35 10 35 5 0 7 -4 4 -9z m384 -1 c0 -5
-2 -10 -4 -10 -3 0 -8 5 -11 10 -3 6 -1 10 4 10 6 0 11 -4 11 -10z m-359 -57
c-10 -17 -10 -16 -11 3 0 23 13 41 18 25 2 -6 -1 -18 -7 -28z m-21 -24 c0 -4
-7 -12 -15 -19 -21 -17 -19 -37 5 -52 27 -17 25 -25 -5 -25 -24 0 -25 2 -25
63 0 62 1 64 20 52 11 -7 20 -16 20 -19z m110 -20 c0 -24 -23 -21 -28 4 -2 10
3 17 12 17 10 0 16 -9 16 -21z m60 1 c0 -15 -7 -20 -25 -20 -18 0 -25 5 -25
20 0 15 7 20 25 20 18 0 25 -5 25 -20z m60 5 c0 -8 -9 -15 -19 -15 -10 0 -21
7 -25 15 -4 11 1 15 19 15 16 0 25 -6 25 -15z m50 11 c0 -2 -3 -11 -6 -20 -9
-23 -24 -20 -24 4 0 11 7 20 15 20 8 0 15 -2 15 -4z m-202 -34 c17 -17 26 -18
91 -9 56 8 75 7 81 -2 5 -10 13 -7 29 10 11 12 24 19 28 15 5 -4 -12 -26 -36
-47 -48 -43 -41 -54 8 -13 26 21 34 24 46 14 18 -15 19 -31 4 -64 l-12 -25
-46 23 c-31 16 -57 22 -81 19 -28 -4 -46 2 -85 30 -28 19 -51 41 -53 50 -4 22
4 21 26 -1z m8 -52 l34 -30 -39 -19 -38 -20 -12 25 c-14 32 -14 47 1 62 16 16
16 16 54 -18z m184 -61 l35 -18 -122 -1 c-68 0 -123 2 -123 5 0 3 15 11 33 18
47 20 135 18 177 -4z"/>
<path d="M570 357 c0 -31 -5 -47 -15 -51 -20 -7 -20 -66 0 -66 12 0 15 -14 15
-69 0 -43 5 -72 13 -79 23 -19 56 -23 97 -12 37 10 40 14 40 44 0 30 -3 33
-24 29 -28 -6 -49 24 -44 60 2 17 10 22 33 22 27 0 30 3 33 37 3 35 2 37 -30
40 -30 3 -33 6 -31 35 3 36 2 38 -49 47 l-38 7 0 -44z"/>
<path d="M2427 384 c-3 -3 -3 -21 0 -40 4 -25 2 -35 -11 -40 -21 -8 -23 -74
-1 -74 12 0 15 -14 15 -68 0 -78 9 -92 61 -92 63 0 89 15 89 51 0 27 -3 31
-22 26 -31 -8 -48 10 -48 49 0 31 3 34 29 34 26 0 29 4 33 35 5 42 3 45 -34
45 -25 0 -28 3 -28 34 0 22 -6 36 -16 40 -20 8 -59 8 -67 0z"/>
<path d="M70 313 c-65 -33 -88 -118 -50 -181 41 -67 131 -78 192 -23 25 22 31
37 35 77 4 55 -9 87 -47 116 -38 28 -89 32 -130 11z m84 -79 c9 -8 16 -24 16
-34 0 -20 -25 -50 -42 -50 -17 0 -48 31 -48 48 0 19 29 52 46 52 7 0 20 -7 28
-16z"/>
<path d="M2298 314 c-53 -28 -61 -72 -23 -124 27 -36 20 -60 -16 -60 -23 0
-23 -3 -3 -41 13 -26 20 -30 42 -24 39 9 76 38 86 68 8 21 4 33 -17 64 -33 48
-34 61 -2 69 29 7 30 12 9 42 -18 25 -38 27 -76 6z"/>
<path d="M286 313 c-16 -4 -18 -12 -12 -56 3 -29 6 -98 6 -154 l0 -103 40 0
40 0 0 46 c0 38 3 45 16 40 62 -24 117 -8 147 43 32 55 15 140 -35 175 -27 19
-89 21 -106 4 -9 -9 -15 -9 -24 0 -12 12 -37 14 -72 5z m146 -80 c22 -19 24
-56 4 -73 -43 -35 -99 28 -61 70 22 24 33 25 57 3z"/>
<path d="M886 313 c-26 -4 -28 -7 -22 -35 3 -17 6 -68 6 -114 l0 -84 45 0 45
0 0 74 c0 77 12 102 44 90 13 -5 16 -21 16 -85 l0 -79 45 0 45 0 0 104 c0 97
-2 106 -22 120 -28 20 -78 20 -104 1 -25 -19 -34 -19 -34 0 0 15 -9 16 -64 8z"/>
<path d="M2631 295 c-81 -68 -55 -196 46 -224 40 -11 91 -5 117 15 16 11 17
17 7 43 -12 29 -13 29 -46 15 -24 -10 -41 -11 -60 -4 -41 15 -29 30 24 30 27
0 62 5 77 10 24 9 26 14 21 48 -14 84 -119 123 -186 67z m83 -41 c26 -10 18
-32 -15 -39 -37 -8 -44 -3 -29 24 11 22 19 25 44 15z"/>
<path d="M2870 311 c-30 -5 -35 -10 -34 -33 0 -16 1 -68 2 -118 l2 -90 46 0
47 0 -6 57 c-7 69 4 93 43 93 29 0 30 2 30 45 0 40 -2 45 -22 45 -13 0 -29 -4
-37 -9 -10 -6 -19 -5 -25 3 -7 8 -24 10 -46 7z"/>
<path d="M740 195 l0 -115 44 0 45 0 3 115 3 115 -47 0 -48 0 0 -115z"/>
<path d="M1541 101 c-8 -5 -11 -16 -7 -26 3 -10 9 -15 12 -12 4 3 13 -1 21 -9
22 -22 33 -8 20 26 -12 31 -22 36 -46 21z"/>
</g>
</svg>
