<?xml version="1.0" standalone="no"?>
<!DOCTYPE svg PUBLIC "-//W3C//DTD SVG 20010904//EN"
 "http://www.w3.org/TR/2001/REC-SVG-20010904/DTD/svg10.dtd">
<svg version="1.0" xmlns="http://www.w3.org/2000/svg"
 width="576.000000pt" height="186.000000pt" viewBox="0 0 576.000000 186.000000"
 preserveAspectRatio="xMidYMid meet">

<g transform="translate(0.000000,186.000000) scale(0.100000,-0.100000)"
fill="#000000" stroke="none">
<path d="M2843 1849 c-357 -41 -616 -224 -745 -525 -55 -128 -72 -225 -72
-399 1 -189 21 -291 84 -420 112 -230 317 -392 585 -461 135 -36 420 -45 560
-20 217 40 341 102 476 236 83 82 103 108 143 191 43 89 76 208 76 275 l0 24
-256 -2 -257 -3 -13 -53 c-39 -151 -142 -237 -317 -263 -212 -31 -401 62 -491
242 -43 86 -60 185 -53 309 9 150 58 262 152 349 91 84 196 117 353 109 84 -4
109 -10 164 -35 105 -49 174 -136 193 -245 l7 -38 260 0 260 0 -7 63 c-16 143
-82 286 -183 398 -87 96 -247 192 -394 235 -129 39 -354 53 -525 33z"/>
<path d="M0 1525 l0 -245 325 0 325 0 0 -605 0 -605 293 2 292 3 2 600 3 600
325 3 325 2 -2 243 -3 242 -942 3 -943 2 0 -245z"/>
<path d="M4265 1758 c-3 -7 -4 -389 -3 -848 l3 -835 738 -3 737 -2 0 235 0
235 -455 0 -455 0 -2 612 -3 613 -278 3 c-217 2 -279 0 -282 -10z"/>
</g>
</svg>
